<svg width="12" height="15" viewBox="0 0 12 15" fill="none" xmlns="http://www.w3.org/2000/svg">
<path d="M6.33411 0.547909C6.06061 0.468715 5.73918 0.559016 5.55259 0.852174C4.94474 1.80737 1.2977 7.53854 0.689784 8.49373C0.395515 8.9557 0.727783 9.5573 1.27596 9.5573H5.44408V13.7254C5.44408 14.4201 6.35175 14.6806 6.72494 14.0943L11.5877 6.45275C11.882 5.99078 11.5497 5.38918 11.0016 5.38918H6.83345V1.22106C6.83345 0.873713 6.60768 0.627798 6.33411 0.547909ZM5.44408 3.60938V6.08387C5.44408 6.46733 5.75509 6.77855 6.13876 6.77855H9.74245L6.83345 11.3371V8.86261C6.83345 8.47915 6.52244 8.16793 6.13876 8.16793H2.53508C3.3323 6.91541 4.37607 5.28705 5.44408 3.60938Z" fill="#001233"/>
</svg>
