<svg width="40" height="40" viewBox="0 0 40 40" fill="none" xmlns="http://www.w3.org/2000/svg">
<rect width="40" height="40" rx="8" fill="#467CEB"/>
<path d="M28.4727 19.0898C28.8242 19.4062 28.9648 19.8281 29 20.25C29 20.6719 28.8242 21.0938 28.4727 21.4102L21.1602 28.7578C20.8438 29.0742 20.4219 29.25 20 29.25C19.543 29.25 19.1211 29.1094 18.8047 28.7578L11.4922 21.4102C11.1406 21.0938 11 20.6719 11 20.25C11 19.8281 11.1406 19.4062 11.4922 19.0898L18.8047 11.7773C19.1211 11.4258 19.543 11.2852 19.9648 11.25C20.3867 11.25 20.8086 11.4258 21.1602 11.7422L28.4727 19.0898ZM25.4141 20.1094C25.5547 20.0039 25.5898 19.8633 25.5898 19.6875C25.5898 19.5469 25.5547 19.3711 25.3438 19.2656L21.9688 16.3125C21.6172 16.0312 21.0547 16.2773 21.0547 16.7344V18.5625H17.7148C17.082 18.5625 16.5898 19.0898 16.5898 19.6875V22.5C16.5898 23.1328 17.0469 23.625 17.7148 23.625C18.3477 23.625 18.8398 23.1328 18.8398 22.5V20.8125H21.0898V22.6406C21.0898 23.0977 21.6523 23.4141 22.0391 23.0625L25.4141 20.1094Z" fill="white"/>
</svg>
