<svg width="16" height="14" viewBox="0 0 16 14" fill="none" xmlns="http://www.w3.org/2000/svg">
<path d="M11.9174 0.678345H4.08166C3.12131 0.678345 2.24631 1.15364 1.74104 1.94973C0.853927 3.34739 0.46799 4.96643 0.625607 6.63166C0.963497 10.2054 3.92346 13.0745 7.51037 13.3056C7.67658 13.3163 7.84182 13.3216 8.00647 13.3216C9.8969 13.3216 11.6781 12.62 13.0664 11.3183C14.5549 9.92268 15.4086 7.95247 15.4086 5.91282C15.4086 4.51282 15.0155 3.14924 14.2717 1.96956C13.7621 1.16106 12.8819 0.678345 11.9174 0.678345ZM12.2457 10.4429C10.9811 11.6287 9.32854 12.2203 7.58752 12.1081C4.58264 11.9146 2.10334 9.51165 1.82014 6.51868C1.68791 5.12102 2.01096 3.7635 2.75412 2.5929C3.03401 2.15217 3.5426 1.87834 4.08166 1.87834H11.9174C12.4674 1.87834 12.968 2.15168 13.2565 2.6095C13.8793 3.59739 14.2086 4.73967 14.2086 5.91282C14.2086 7.64719 13.5115 9.25598 12.2457 10.4429Z" fill="#7D8597"/>
</svg>
