<svg width="18" height="19" viewBox="0 0 18 19" fill="none" xmlns="http://www.w3.org/2000/svg">
<path d="M9 0.25C13.957 0.25 18 4.29297 18 9.25C18 14.2422 13.957 18.25 9 18.25C4.00781 18.25 0 14.2422 0 9.25C0 4.29297 4.00781 0.25 9 0.25ZM9 16.5625C13.0078 16.5625 16.3125 13.293 16.3125 9.25C16.3125 5.24219 13.0078 1.9375 9 1.9375C4.95703 1.9375 1.6875 5.24219 1.6875 9.25C1.6875 13.293 4.95703 16.5625 9 16.5625ZM10.4062 12.0625C10.8633 12.0625 11.25 12.4492 11.25 12.9062C11.25 13.3984 10.8633 13.75 10.4062 13.75H7.59375C7.10156 13.75 6.75 13.3984 6.75 12.9062C6.75 12.4492 7.10156 12.0625 7.59375 12.0625H8.15625V9.8125H7.875C7.38281 9.8125 7.03125 9.46094 7.03125 8.96875C7.03125 8.51172 7.38281 8.125 7.875 8.125H9C9.45703 8.125 9.84375 8.51172 9.84375 8.96875V12.0625H10.4062ZM9 7C8.36719 7 7.875 6.50781 7.875 5.875C7.875 5.27734 8.36719 4.75 9 4.75C9.59766 4.75 10.125 5.27734 10.125 5.875C10.125 6.50781 9.59766 7 9 7Z" fill="#7D8597"/>
</svg>
