<svg width="64" height="64" viewBox="0 0 64 64" fill="none" xmlns="http://www.w3.org/2000/svg">
<rect x="0.5" y="0.5" width="63" height="63" rx="31.5" fill="white"/>
<rect x="0.5" y="0.5" width="63" height="63" rx="31.5" stroke="#EAEBEE"/>
<mask id="mask0_887_16007" style="mask-type:luminance" maskUnits="userSpaceOnUse" x="14" y="20" width="36" height="24">
<path d="M49.4546 20.1511H14.5455V43.849H49.4546V20.1511Z" fill="white"/>
</mask>
<g mask="url(#mask0_887_16007)">
<path d="M31.367 34.0377C31.367 35.5653 31.367 36.9362 31.367 38.4639L25.4566 43.791H22.0961C19.4473 36.0745 16.8973 28.3776 14.5845 20.4652L14.6241 20.2302L31.367 34.0377Z" fill="#979DAC" stroke="#979DAC" stroke-width="1.45455" stroke-miterlimit="8"/>
<path d="M20.4769 27.8087C22.2757 31.7257 25.1815 41.1265 25.4385 43.7901H22.0781C20.5955 39.8535 15.9897 24.303 14.606 20.2097L20.4769 27.8087Z" fill="#979DAC"/>
<path d="M20.4769 27.8087C22.2757 31.7257 25.1815 41.1265 25.4385 43.7901H22.0781C20.5955 39.8535 15.8909 24.3617 14.606 20.2097L20.4769 27.8087Z" fill="#979DAC"/>
<path d="M31.3489 34.0172C31.3489 35.016 31.3489 35.016 31.3292 36.0148C29.5106 34.9768 23.185 30.3939 20.3978 27.7695L14.606 20.2097L31.3489 34.0172Z" fill="#979DAC"/>
<path d="M31.3489 34.0172C31.3489 35.016 31.3489 35.016 31.3292 36.0148C29.5106 34.9768 23.185 30.3939 20.3978 27.7695L14.606 20.2097L31.3489 34.0172Z" fill="#979DAC"/>
<path d="M23.699 35.5056L31.3489 36.0344C31.3489 36.7786 31.3489 37.0137 31.3489 38.4434L25.4187 43.7705H22.0583L20.3188 27.7304L14.8037 20.621L14.606 20.2097L20.4176 27.6912L23.699 35.5056Z" fill="#979DAC"/>
<path d="M22.2347 43.6142H25.2393L31.2881 36.1132L20.4556 27.8875L22.2347 43.6142Z" fill="#979DAC"/>
<path d="M20.4556 27.7507L31.2881 35.9764V36.1331L20.4952 27.927L20.4556 27.7507Z" fill="#979DAC"/>
<path d="M32.6714 34.0367C32.6714 35.5643 32.6714 36.9353 32.6714 38.4629L38.5819 43.79H41.9226C44.5714 36.0735 47.1214 28.3766 49.4341 20.4643L49.3946 20.2292L32.6714 34.0367Z" fill="#979DAC" stroke="#979DAC" stroke-width="1.45455" stroke-miterlimit="8"/>
<path d="M43.5246 27.8096C41.7258 31.7266 38.82 41.1274 38.563 43.791H41.9235C43.406 39.874 48.2293 24.6369 49.3955 20.2302L43.5246 27.8096Z" fill="#979DAC"/>
<path d="M32.6527 34.0174C32.6527 35.0162 32.6527 35.0162 32.6725 36.0151C34.4911 34.9771 40.8166 30.3942 43.6038 27.7698L49.3956 20.21L32.6527 34.0174Z" fill="#979DAC"/>
<path d="M40.3027 35.5059L32.6527 36.0347C32.6527 36.7789 32.6527 37.0139 32.6527 38.4436L38.5631 43.7707H41.9236L43.6829 27.7306L49.198 20.6212L49.3956 20.21L43.584 27.6914L40.3027 35.5059Z" fill="#979DAC"/>
<path d="M43.543 27.7117L32.7105 35.9765V36.1332L43.4837 27.9075L43.543 27.7117Z" fill="#979DAC"/>
<path d="M43.5229 27.7703H43.6415L43.5822 27.829L41.8625 43.5362H38.5416L40.202 35.6239L43.4834 27.8094L43.5229 27.7703Z" fill="#979DAC"/>
<path d="M41.7639 43.7121H38.7593L32.7105 36.1719L43.543 27.8875L41.7639 43.7121Z" fill="#979DAC"/>
<path d="M49.317 20.3279L49.1194 20.7392L43.624 27.7898H43.5054L49.317 20.3279Z" fill="#979DAC"/>
<path d="M38.6011 43.6147H41.922L41.8825 43.791H38.522L38.6011 43.6147Z" fill="#979DAC"/>
</g>
</svg>
