<svg width="64" height="64" viewBox="0 0 64 64" fill="none" xmlns="http://www.w3.org/2000/svg">
<rect x="0.5" y="0.5" width="63" height="63" rx="31.5" fill="white"/>
<rect x="0.5" y="0.5" width="63" height="63" rx="31.5" stroke="#EAEBEE"/>
<path fill-rule="evenodd" clip-rule="evenodd" d="M39.6958 14.5454H24.4629L14.5455 24.4626V39.5766L24.3836 49.4545H39.5372L49.4546 39.5371V24.3835L39.6958 14.5454ZM46.4398 38.1884L38.1885 46.4397H25.8116L17.5604 38.2281V25.8115L25.8116 17.5999H38.3469L46.4396 25.7322V38.1884H46.4398Z" fill="#979DAC"/>
<path fill-rule="evenodd" clip-rule="evenodd" d="M24.5887 28.0326L22.4861 23.7482L19.3521 26.6839V37.1963L22.3671 40.2508V30.016L24.9853 35.8474L27.9604 28.0723V44.3764H31.2926V19.5433H27.7622L24.5887 28.0326ZM33.6227 19.5433V44.3764H37.4311L44.6509 37.1963V31.9598H39.0972V34.9747H41.16C41.7154 34.8953 41.755 35.5302 41.3581 36.006C40.9616 36.482 36.9549 40.4094 36.9549 40.4094V23.5103L41.6358 28.3895V29.5796H44.6507V26.8027L37.5102 19.5433H33.6227Z" fill="#979DAC"/>
</svg>
