<svg width="64" height="64" viewBox="0 0 64 64" fill="none" xmlns="http://www.w3.org/2000/svg">
<rect x="0.5" y="0.5" width="63" height="63" rx="31.5" fill="white"/>
<rect x="0.5" y="0.5" width="63" height="63" rx="31.5" stroke="#EAEBEE"/>
<path fill-rule="evenodd" clip-rule="evenodd" d="M48.5118 28.1619C48.0931 27.3373 47.5416 26.547 46.8556 25.8058C45.3139 24.1395 43.1387 22.7529 40.5646 21.7966C37.9693 20.8328 35.0091 20.3229 32.0009 20.3229C28.9927 20.3229 26.0325 20.8328 23.4385 21.7966C20.8631 22.753 18.6878 24.1396 17.1461 25.8058C16.4605 26.5469 15.9073 27.3383 15.4886 28.1634C18.8399 27.3518 24.5723 26.2803 29.8949 26.167C30.4083 26.156 30.7618 26.3207 30.9946 26.6161C31.2781 26.9758 31.2568 28.2582 31.2499 28.8319L31.0986 43.6606C31.3983 43.6705 31.6995 43.6769 32.0009 43.6769C32.3048 43.6769 32.6077 43.672 32.9074 43.662L32.7561 28.8318C32.7483 28.2582 32.7263 26.9757 33.0108 26.616C33.2442 26.3207 33.5964 26.156 34.1097 26.1669C39.4302 26.2793 45.1613 27.351 48.5118 28.1619Z" fill="#979DAC"/>
<path fill-rule="evenodd" clip-rule="evenodd" d="M49.2268 30.0901C44.322 28.9797 41.0465 28.7744 37.8146 28.5948C34.9974 28.4379 34.9606 29.4454 35.2419 31.3705C35.2603 31.488 35.2829 31.6361 35.3097 31.805C36.2547 37.4097 37.4314 42.2329 37.6336 43.0515C44.5015 41.4794 49.4546 37.1205 49.4546 32.0001C49.4546 31.3553 49.3768 30.7165 49.2268 30.0901ZM28.7615 31.3705C29.043 29.4455 29.0069 28.4379 26.1901 28.5948C22.9571 28.7744 19.6808 28.9796 14.7741 30.0908C14.6243 30.7171 14.5455 31.3552 14.5455 31.9999C14.5455 34.213 15.4445 36.3545 17.1457 38.1943C18.6873 39.8607 20.8626 41.2473 23.4381 42.2043C24.3702 42.5499 25.3539 42.8331 26.3671 43.0597C26.5573 42.2928 27.761 37.3693 28.7162 31.6643C28.7339 31.555 28.7502 31.4541 28.7615 31.3705Z" fill="#979DAC"/>
</svg>
