<svg width="24" height="25" viewBox="0 0 24 25" fill="none" xmlns="http://www.w3.org/2000/svg">
<path d="M21.8438 4.4375C22.6875 4.8125 23.25 5.60938 23.25 6.5C23.25 18.5 14.3906 24.5 11.9531 24.5C9.60938 24.5 0.75 18.5938 0.75 6.5C0.75 5.60938 1.26562 4.8125 2.10938 4.4375L11.1094 0.6875C11.3438 0.59375 11.7188 0.546875 12 0.546875C12.2344 0.546875 12.6094 0.59375 12.8438 0.6875L21.8438 4.4375ZM16.5 9.875C16.5 9.54688 16.2188 8.75 15.375 8.75C15.0469 8.75 14.7188 8.84375 14.4844 9.125L10.7812 13.4375L9.375 12.0781C9.1875 11.8438 8.90625 11.75 8.625 11.75C7.96875 11.75 7.5 12.2656 7.5 12.875C7.5 13.2031 7.59375 13.4844 7.82812 13.6719L10.0781 15.9219C10.2656 16.1094 10.5469 16.25 10.875 16.25C10.9688 16.25 11.3906 16.25 11.7188 15.875L16.2188 10.625C16.4062 10.4375 16.5 10.1562 16.5 9.875Z" fill="#467CEB"/>
</svg>
