<svg width="82" height="48" viewBox="0 0 82 48" fill="none" xmlns="http://www.w3.org/2000/svg">
<rect x="0.5" y="0.5" width="81" height="47" rx="23.5" fill="white"/>
<rect x="0.5" y="0.5" width="81" height="47" rx="23.5" stroke="#EAEBEE"/>
<path fill-rule="evenodd" clip-rule="evenodd" d="M16 28.8405V23.3803C16 22.7454 16.2572 22.1376 16.713 21.6957L24.997 13.6624C25.4349 13.2378 26.0208 13.0004 26.6307 13.0004H46.0933C46.7317 13.0004 47.3425 13.2604 47.7849 13.7206L53.918 20.0992C54.2485 20.4429 54.6759 20.6778 55.1432 20.7726L64.1196 22.5925C65.2137 22.8143 66 23.7761 66 24.8924V28.8405C66 30.1365 64.9494 31.1871 63.6534 31.1871H63.069C63.1277 30.863 63.1584 30.529 63.1584 30.188C63.1584 27.1099 60.6632 24.6146 57.5852 24.6146C54.5072 24.6146 52.012 27.1099 52.012 30.188C52.012 30.529 52.0426 30.863 52.1013 31.1871H30.4592C30.5179 30.863 30.5485 30.529 30.5485 30.188C30.5485 27.1099 28.0533 24.6146 24.9753 24.6146C21.8973 24.6146 19.4021 27.1099 19.4021 30.188C19.4021 30.529 19.4328 30.863 19.4915 31.1871H18.3466C17.0506 31.1871 16 30.1365 16 28.8405ZM33.5987 14.4662H27.0636C26.7414 14.4662 26.4334 14.5987 26.2119 14.8326L21.3941 19.9182C21.3202 19.9961 21.2791 20.0994 21.2791 20.2067C21.2791 20.4384 21.4669 20.6262 21.6986 20.6262H33.5987C34.2467 20.6262 34.772 20.1009 34.772 19.4529V15.6395C34.772 14.9915 34.2467 14.4662 33.5987 14.4662ZM36.2397 15.6395V19.4529C36.2397 20.1009 36.765 20.6262 37.413 20.6262H50.577C50.9207 20.6262 51.1993 20.3476 51.1993 20.004C51.1993 19.8389 51.1337 19.6807 51.017 19.564L46.6067 15.1535C46.1667 14.7134 45.5698 14.4662 44.9474 14.4662H37.413C36.765 14.4662 36.2397 14.9915 36.2397 15.6395ZM29.6694 30.3061C29.6694 32.8982 27.5682 34.9995 24.9763 34.9995C22.3843 34.9995 20.2831 32.8982 20.2831 30.3061C20.2831 27.7141 22.3843 25.6128 24.9763 25.6128C27.5682 25.6128 29.6694 27.7141 29.6694 30.3061ZM22.6866 30.3061C22.6866 31.5707 23.7117 32.5958 24.9763 32.5958C26.2408 32.5958 27.2659 31.5707 27.2659 30.3061C27.2659 29.0415 26.2408 28.0164 24.9763 28.0164C23.7117 28.0164 22.6866 29.0415 22.6866 30.3061ZM57.5863 34.9994C60.1782 34.9994 62.2795 32.8981 62.2795 30.306C62.2795 27.714 60.1782 25.6127 57.5863 25.6127C54.9943 25.6127 52.8931 27.714 52.8931 30.306C52.8931 32.8981 54.9943 34.9994 57.5863 34.9994ZM57.5863 32.5957C56.3217 32.5957 55.2966 31.5706 55.2966 30.306C55.2966 29.0415 56.3217 28.0163 57.5863 28.0163C58.8508 28.0163 59.8759 29.0415 59.8759 30.306C59.8759 31.5706 58.8508 32.5957 57.5863 32.5957Z" fill="#979DAC"/>
</svg>
