<svg width="66" height="48" viewBox="0 0 66 48" fill="none" xmlns="http://www.w3.org/2000/svg">
<rect x="0.5" y="0.5" width="64.2947" height="47" rx="23.5" fill="white"/>
<rect x="0.5" y="0.5" width="64.2947" height="47" rx="23.5" stroke="#EAEBEE"/>
<path fill-rule="evenodd" clip-rule="evenodd" d="M19.6657 21.4343L19.6657 22.2956C16.5651 24.1905 15.9335 28.253 16.0053 30.0474H17.5175C17.5145 29.9757 17.513 29.9037 17.513 29.8313C17.513 26.9771 19.8267 24.6634 22.6807 24.6634C25.5348 24.6634 27.8485 26.9771 27.8485 29.8313C27.8485 29.9037 27.847 29.9757 27.844 30.0474H39.946C40.2635 27.4978 42.4383 25.5247 45.0738 25.5247C46.1036 25.5247 47.063 25.8259 47.8687 26.345C48.12 26.2348 48.276 26.1717 48.3035 26.1717C48.5188 26.1717 48.5188 25.741 48.5188 25.741C46.9685 23.6739 44.1406 23.4442 42.9204 23.5878C42.9204 21.6929 41.1979 18.6352 40.3366 17.3433C40.1213 17.0562 39.8629 16.482 40.5519 16.482C41.2409 16.482 41.4132 15.9077 41.4132 15.6206V13.4672C41.2409 12.9504 40.6237 12.9648 40.3366 13.0365L37.7527 13.4672C37.1023 13.5973 36.8202 13.8993 36.7211 14.1321C37.549 14.2576 38.1836 14.9723 38.1836 15.8352C38.1836 16.3221 37.9816 16.7617 37.657 17.075L37.7527 17.3431C38.4417 18.3767 38.7575 20.6448 38.8293 21.6496C38.8293 22.5827 38.7001 24.6212 38.1834 25.3102C37.6666 25.9992 36.8197 26.3151 36.4608 26.3868H31.2931C30.604 26.3868 29.8576 25.6691 29.5705 25.3102C29.3552 25.0231 28.9245 24.2766 28.9245 23.5876C28.9245 22.8985 29.3552 22.1521 29.5705 21.865V21.0036C29.5705 20.6591 28.9963 20.573 28.7092 20.573H20.9576C20.0964 20.573 19.7375 21.1472 19.6657 21.4343ZM36.2452 16.913C36.8398 16.913 37.3218 16.4309 37.3218 15.8363C37.3218 15.2417 36.8398 14.7597 36.2452 14.7597C35.6506 14.7597 35.1686 15.2417 35.1686 15.8363C35.1686 16.4309 35.6506 16.913 36.2452 16.913ZM27.1583 30.0474C27.1583 32.5448 25.1339 34.5693 22.6366 34.5693C20.1393 34.5693 18.1148 32.5448 18.1148 30.0474C18.1148 27.55 20.1393 25.5255 22.6366 25.5255C25.1339 25.5255 27.1583 27.55 27.1583 30.0474ZM20.2068 30.0474C20.2068 31.3893 21.2947 32.4772 22.6366 32.4772C23.9785 32.4772 25.0663 31.3893 25.0663 30.0474C25.0663 28.7054 23.9785 27.6176 22.6366 27.6176C21.2947 27.6176 20.2068 28.7054 20.2068 30.0474ZM44.9883 34.9999C47.3667 34.9999 49.2947 33.0718 49.2947 30.6934C49.2947 28.3149 47.3667 26.3868 44.9883 26.3868C42.6099 26.3868 40.6819 28.3149 40.6819 30.6934C40.6819 33.0718 42.6099 34.9999 44.9883 34.9999ZM44.9883 32.9275C43.7545 32.9275 42.7542 31.9273 42.7542 30.6934C42.7542 29.4595 43.7545 28.4592 44.9883 28.4592C46.2222 28.4592 47.2224 29.4595 47.2224 30.6934C47.2224 31.9273 46.2222 32.9275 44.9883 32.9275ZM16.2219 14.7599C16.2219 14.2842 16.6075 13.8986 17.0832 13.8986H23.5428C24.0185 13.8986 24.4041 14.2842 24.4041 14.7599V16.4825H16.2219V14.7599ZM17.0832 19.9269C16.6075 19.9269 16.2219 19.5413 16.2219 19.0656V17.3429H24.4041V19.0656C24.4041 19.5413 24.0185 19.9269 23.5428 19.9269H17.0832Z" fill="#979DAC"/>
</svg>
