<svg width="68" height="48" viewBox="0 0 68 48" fill="none" xmlns="http://www.w3.org/2000/svg">
<rect x="0.794739" y="0.5" width="65.8213" height="47" rx="23.5" fill="white"/>
<rect x="0.794739" y="0.5" width="65.8213" height="47" rx="23.5" stroke="#EAEBEE"/>
<path fill-rule="evenodd" clip-rule="evenodd" d="M48.7066 26.3806L49.6269 27.564C49.6515 27.5956 49.6649 27.6345 49.6649 27.6745C49.6649 27.7739 49.5843 27.8545 49.4849 27.8545H49.3499C49.2931 27.8545 49.2382 27.8698 49.1906 27.8977C48.7403 27.7142 48.2477 27.613 47.7314 27.613C45.5952 27.613 43.8634 29.3449 43.8634 31.4812C43.8634 31.729 43.8867 31.9713 43.9312 32.2062H25.3505C25.1221 32.2062 24.8949 32.1742 24.6754 32.1111L24.481 32.0552C24.5088 31.8679 24.5233 31.6762 24.5233 31.4812C24.5233 29.3449 22.7915 27.613 20.6552 27.613C19.0681 27.613 17.7042 28.569 17.1079 29.9366L16.96 29.894C16.9138 29.8808 16.8659 29.874 16.8178 29.874C16.5336 29.874 16.3032 29.6436 16.3032 29.3594V18.1841C16.1208 15.2656 18.9345 13.6947 20.6072 13.1874C20.7984 13.1294 20.9975 13.1072 21.1974 13.1072H39.9948C41.1923 13.1072 42.2259 13.9899 42.7274 14.5841C42.8448 14.7232 42.9313 14.8842 43.0017 15.0521L45.8484 21.8405C45.9739 22.1399 46.0386 22.4612 46.0386 22.7858V25.4369H46.7771C47.5314 25.4369 48.2435 25.7852 48.7066 26.3806ZM37.8186 30.2727V15.0418H24.2805V23.9869H25.4893C27.2299 24.1803 28.4709 28.258 28.8738 30.2727H30.566V21.6902C30.566 21.2229 30.9449 20.8441 31.4122 20.8441C31.8795 20.8441 32.2583 21.2229 32.2583 21.6902V25.1957H35.7637C36.231 25.1957 36.6098 25.5746 36.6098 26.0419C36.6098 26.5092 36.231 26.8881 35.7637 26.8881H32.2583V30.2727H37.8186ZM39.5108 15.0417V23.0198H44.1041C43.4594 20.3605 41.6382 15.0417 39.5108 15.0417ZM44.8305 31.75C44.8305 33.4858 46.2376 34.8929 47.9733 34.8929C49.709 34.8929 51.116 33.4858 51.116 31.75C51.116 30.0143 49.709 28.6072 47.9733 28.6072C46.2376 28.6072 44.8305 30.0143 44.8305 31.75ZM49.8275 31.75C49.8275 32.7741 48.9973 33.6043 47.9733 33.6043C46.9492 33.6043 46.119 32.7741 46.119 31.75C46.119 30.726 46.9492 29.8958 47.9733 29.8958C48.9973 29.8958 49.8275 30.726 49.8275 31.75ZM20.5582 34.8929C18.8225 34.8929 17.4155 33.4858 17.4155 31.75C17.4155 30.0143 18.8225 28.6072 20.5582 28.6072C22.2939 28.6072 23.701 30.0143 23.701 31.75C23.701 33.4858 22.2939 34.8929 20.5582 34.8929ZM20.5582 33.6063C21.5834 33.6063 22.4144 32.7752 22.4144 31.75C22.4144 30.7249 21.5834 29.8938 20.5582 29.8938C19.5331 29.8938 18.702 30.7249 18.702 31.75C18.702 32.7752 19.5331 33.6063 20.5582 33.6063Z" fill="#979DAC"/>
</svg>
