<svg width="75" height="48" viewBox="0 0 75 48" fill="none" xmlns="http://www.w3.org/2000/svg">
<rect x="0.616028" y="0.5" width="73.4988" height="47" rx="23.5" fill="white"/>
<rect x="0.616028" y="0.5" width="73.4988" height="47" rx="23.5" stroke="#EAEBEE"/>
<path fill-rule="evenodd" clip-rule="evenodd" d="M58.6148 31.5011V18.0009C58.6148 15.7918 56.824 14.001 54.6148 14.001H42.6153C42.6153 13.401 41.9486 13.0843 41.6153 13.001H28.1157C27.3157 13.001 26.7824 13.6676 26.6157 14.001H17.616C16.7876 14.001 16.116 14.6725 16.116 15.501V30.5011C16.116 31.8818 17.2353 33.0011 18.616 33.0011H21.7415C21.6592 32.6814 21.6154 32.3462 21.6154 32.0008C21.6154 29.7917 23.4062 28.0008 25.6153 28.0008C27.8244 28.0008 29.6152 29.7917 29.6152 32.0008C29.6152 32.3462 29.5714 32.6814 29.4891 33.0011H43.241C43.1587 32.6814 43.1149 32.3462 43.1149 32.0008C43.1149 29.7917 44.9057 28.0008 47.1148 28.0008C49.3239 28.0008 51.1147 29.7917 51.1147 32.0008C51.1147 32.3462 51.0709 32.6814 50.9886 33.0011H57.1148C57.9432 33.0011 58.6148 32.3295 58.6148 31.5011ZM18.116 17.5C18.116 16.9477 18.5637 16.5 19.116 16.5H26.6158V23H19.116C18.5637 23 18.116 22.5523 18.116 22V17.5ZM36.6153 16.5H28.1155V23H36.6153V16.5ZM46.6153 16.5H38.1155V23H45.1153C46.3153 23 46.6153 23.1667 46.6153 23.25V16.5ZM48.3655 16.5V24.25L51.1155 27.25C51.4488 27.5834 52.2154 28.2501 52.6154 28.2501H55.3653C55.782 28.1667 56.6153 27.7 56.6153 26.5V19.75C56.6153 18.75 56.0153 16.7 53.6154 16.5H48.3655ZM50.1159 31.999C50.1159 33.6559 48.7727 34.9991 47.1159 34.9991C45.4591 34.9991 44.116 33.6559 44.116 31.999C44.116 30.3422 45.4591 28.999 47.1159 28.999C48.7727 28.999 50.1159 30.3422 50.1159 31.999ZM45.5747 31.999C45.5747 32.8503 46.2647 33.5403 47.1159 33.5403C47.9671 33.5403 48.6572 32.8503 48.6572 31.999C48.6572 31.1478 47.9671 30.4578 47.1159 30.4578C46.2647 30.4578 45.5747 31.1478 45.5747 31.999ZM25.615 34.9991C27.2718 34.9991 28.6149 33.6559 28.6149 31.999C28.6149 30.3422 27.2718 28.999 25.615 28.999C23.9582 28.999 22.6151 30.3422 22.6151 31.999C22.6151 33.6559 23.9582 34.9991 25.615 34.9991ZM25.615 33.5403C24.7638 33.5403 24.0737 32.8503 24.0737 31.999C24.0737 31.1478 24.7638 30.4578 25.615 30.4578C26.4662 30.4578 27.1562 31.1478 27.1562 31.999C27.1562 32.8503 26.4662 33.5403 25.615 33.5403Z" fill="#979DAC"/>
</svg>
