<svg width="64" height="64" viewBox="0 0 64 64" fill="none" xmlns="http://www.w3.org/2000/svg">
<rect x="0.5" y="0.5" width="63" height="63" rx="31.5" fill="white"/>
<rect x="0.5" y="0.5" width="63" height="63" rx="31.5" stroke="#EAEBEE"/>
<g clip-path="url(#clip0_887_16034)">
<path d="M45.9978 21.5274L46.8357 20.6895C47.4291 21.4575 47.9178 22.2954 48.4415 23.1681H49.1047V14.9295H40.8313V15.5928C41.704 16.0466 42.472 16.5703 43.24 17.1986L42.4022 18.0364C39.5047 15.8023 35.9091 14.5455 31.9993 14.5455C22.3295 14.5455 14.5447 22.3303 14.5447 32.0001C14.5447 41.6699 22.3295 49.4546 31.9993 49.4546C41.6691 49.4546 49.4538 41.6699 49.4538 32.0001C49.4538 28.0554 48.1273 24.4248 45.9978 21.5274ZM44.7411 35.1419C43.3098 40.8321 38.1433 45.1259 31.9993 45.1259C25.8553 45.1259 20.6538 40.9019 19.2575 35.1419H44.7411ZM19.2226 28.8234C20.6538 23.0983 25.8204 18.8394 31.9644 18.8394C38.1084 18.8394 43.3098 23.0634 44.7062 28.8234H19.2226ZM41.32 31.9303C41.32 31.3368 41.6342 30.7783 42.1578 30.7783C42.6466 30.7783 42.9258 31.3368 42.9258 32.0001C42.9258 32.5935 42.6466 33.2219 42.088 33.2219C41.5295 33.1521 41.32 32.5586 41.32 31.9303ZM26.8327 31.9303C26.8327 31.3368 27.1469 30.7783 27.6706 30.7783C28.1593 30.7783 28.4386 31.3368 28.4386 32.0001C28.4386 32.5935 28.1593 33.2219 27.6007 33.2219C27.0422 33.1521 26.8327 32.5586 26.8327 31.9303ZM27.6706 30.2546C29.2066 30.2546 29.9746 31.0226 29.9746 31.9652C29.9746 32.9077 29.2066 33.6757 27.6706 33.6757C26.1346 33.6757 25.3666 32.8728 25.3666 31.9303C25.3666 30.9877 26.1346 30.2546 27.6706 30.2546ZM22.9578 32.8379L24.04 30.8132H23.3767V30.3244H25.6109V30.8132H24.8429L23.3767 33.571H21.6313L20.0953 30.8132H19.3273V30.3244H22.6087V30.8132H21.8407L22.9578 32.8379ZM42.1578 30.2546C43.6938 30.2546 44.4618 31.0226 44.4618 31.9652C44.4618 32.9077 43.6938 33.6757 42.1578 33.6757C40.6218 33.6757 39.8538 32.9077 39.8538 31.9652C39.8538 31.0226 40.6218 30.2546 42.1578 30.2546ZM34.6175 30.8481H33.8495V30.3594H37.1309V30.8481H36.3629L37.4451 32.8728L38.5273 30.8481H37.9338V30.3594H40.168V30.8481H39.4L37.9338 33.6059H36.1884C36.1535 33.6059 34.6175 30.8481 34.6175 30.8481ZM30.8822 30.8481H30.1142V30.3594H33.1164V30.8481H32.3484V33.0823H33.0466C33.7098 33.0823 34.0938 32.6284 34.0938 32.1048H34.5826V33.6408H30.1142V33.1521H30.8822V30.8481Z" fill="#979DAC"/>
</g>
<defs>
<clipPath id="clip0_887_16034">
<rect width="34.9091" height="34.9091" fill="white" transform="translate(14.5455 14.5454)"/>
</clipPath>
</defs>
</svg>
